<svg xmlns="http://www.w3.org/2000/svg" xmlns:xlink="http://www.w3.org/1999/xlink" version="1.1" x="0px" y="0px" viewBox="0 0 100 125" enable-background="new 0 0 100 100" xml:space="preserve"><g><path d="M34.953,51.211h28.555h4.301h0.699V22.4c0-10.63-8.648-19.279-19.278-19.279c-10.629,0-19.276,8.648-19.276,19.279v28.811   h0.698H34.953z M34.953,46.21v-2.405h28.555v2.405H34.953z M49.229,8.122c6.095,0,11.295,3.846,13.34,9.232h-8.21   c-0.613,0-1.11,0.498-1.11,1.111c0,0.614,0.497,1.112,1.11,1.112h8.865c0.089,0.438,0.157,0.882,0.204,1.333h-9.069   c-0.613,0-1.11,0.498-1.11,1.111c0,0.615,0.497,1.113,1.11,1.113h9.148v1.333h-9.148c-0.613,0-1.11,0.498-1.11,1.112   c0,0.614,0.497,1.111,1.11,1.111h9.148v1.333h-9.148c-0.613,0-1.11,0.498-1.11,1.111c0,0.614,0.497,1.112,1.11,1.112h9.148v1.334   h-9.148c-0.613,0-1.11,0.497-1.11,1.111c0,0.613,0.497,1.111,1.11,1.111h9.148v1.333h-9.148c-0.613,0-1.11,0.498-1.11,1.112   s0.497,1.112,1.11,1.112h9.148v3.445H34.953V37.36h8.162c0.614,0,1.111-0.498,1.111-1.112s-0.497-1.112-1.111-1.112h-8.162v-1.333   h8.162c0.614,0,1.111-0.498,1.111-1.111c0-0.614-0.497-1.111-1.111-1.111h-8.162v-1.334h8.162c0.614,0,1.111-0.498,1.111-1.112   c0-0.613-0.497-1.111-1.111-1.111h-8.162V26.69h8.162c0.614,0,1.111-0.498,1.111-1.111c0-0.615-0.497-1.112-1.111-1.112h-8.162   v-1.333h8.162c0.614,0,1.111-0.498,1.111-1.113c0-0.613-0.497-1.111-1.111-1.111h-8.083c0.047-0.451,0.116-0.896,0.204-1.333h7.879   c0.614,0,1.111-0.498,1.111-1.112c0-0.613-0.497-1.111-1.111-1.111h-7.224C37.936,11.967,43.135,8.122,49.229,8.122z"/><path d="M77.828,46.151c-0.024,0-0.048,0.007-0.072,0.007v-6.325c0-1.381-1.119-2.5-2.5-2.5s-2.5,1.119-2.5,2.5v14.854   c0,12.954-10.538,23.493-23.492,23.493S25.771,67.643,25.771,54.688V39.834c0-1.381-1.119-2.5-2.5-2.5s-2.5,1.119-2.5,2.5v6.325   c-0.024,0-0.047-0.007-0.071-0.007c-1.592,0-2.881,1.29-2.881,2.881v1.44c0,1.59,1.289,2.881,2.881,2.881   c0.024,0,0.047-0.007,0.071-0.007v1.342c0,14.573,11,26.619,25.133,28.288v8.303H31.021c-1.856,0-3.36,1.504-3.36,3.36   S29.164,98,31.021,98h36.485c1.856,0,3.361-1.504,3.361-3.36s-1.505-3.36-3.361-3.36H52.623v-8.303   c14.133-1.668,25.133-13.714,25.133-28.288v-1.342c0.024,0,0.048,0.007,0.072,0.007c1.591,0,2.881-1.291,2.881-2.881v-1.44   C80.709,47.441,79.419,46.151,77.828,46.151z"/><path d="M49.264,73.208c10.671,0,19.32-8.651,19.32-19.32H29.942C29.942,64.557,38.592,73.208,49.264,73.208z"/></g></svg>