<svg xmlns="http://www.w3.org/2000/svg" xmlns:xlink="http://www.w3.org/1999/xlink" version="1.1" x="0px" y="0px" viewBox="0 0 125 156.25" style="enable-background:new 0 0 125 125;" xml:space="preserve"><path d="M62.5,105.5c-23.7,0-43-19.3-43-43s19.3-43,43-43s43,19.3,43,43S86.2,105.5,62.5,105.5z M62.5,25.5c-20.4,0-37,16.6-37,37  s16.6,37,37,37s37-16.6,37-37S82.9,25.5,62.5,25.5z M58.9,79.8c-0.3,0-0.7-0.1-1-0.2L44.2,75c-6.9-2.3-10.6-9.8-8.3-16.8  c1.3-3.9,4.4-7,8.3-8.3l13.7-4.7c1.6-0.6,3.3,0.3,3.8,1.8c0.1,0.3,0.2,0.7,0.2,1v28.7C61.9,78.5,60.6,79.8,58.9,79.8L58.9,79.8z   M55.9,52.3l-9.8,3.3c-3.8,1.3-5.8,5.4-4.5,9.2c0.7,2.1,2.4,3.8,4.5,4.5l0,0l9.8,3.3V52.3z M79.5,84.4c-1.7,0-3-1.4-3-3  c0-0.7,0.3-1.4,0.8-2c8.7-9.5,8.7-24.1,0-33.7c-1.2-1.2-1.2-3.1,0-4.2c1.2-1.2,3.1-1.2,4.2,0c0.1,0.1,0.1,0.1,0.2,0.2  c10.8,11.8,10.8,30,0,41.8C81.1,84,80.3,84.4,79.5,84.4z M71,75.8c-1.7,0-3-1.3-3-3c0-0.8,0.3-1.5,0.8-2c4.2-4.8,4.2-12,0-16.8  c-1.1-1.3-0.9-3.2,0.4-4.2c1.2-1,3.1-0.9,4.2,0.3c6.1,7.1,6.1,17.5,0,24.6C72.7,75.4,71.9,75.8,71,75.8z"/></svg>